<svg width="27" height="27" viewBox="0 0 27 27" fill="none" xmlns="http://www.w3.org/2000/svg">
<path d="M25.5 7.5V19.5C25.5 24.3 24 25.5 18 25.5H9C3 25.5 1.5 24.3 1.5 19.5V7.5C1.5 2.7 3 1.5 9 1.5H18C24 1.5 25.5 2.7 25.5 7.5Z" stroke="#10B981" stroke-width="1.25" stroke-linecap="round" stroke-linejoin="round"/>
<path d="M16.5 5.69995H10.5" stroke="#10B981" stroke-width="1.25" stroke-linecap="round" stroke-linejoin="round"/>
<path d="M13.5008 22.0201C14.7848 22.0201 15.8258 21.1873 15.8258 20.16C15.8258 19.1328 14.7848 18.3 13.5008 18.3C12.2167 18.3 11.1758 19.1328 11.1758 20.16C11.1758 21.1873 12.2167 22.0201 13.5008 22.0201Z" stroke="#10B981" stroke-width="1.25" stroke-linecap="round" stroke-linejoin="round"/>
</svg>
