<svg width="79" height="34" viewBox="0 0 79 34" fill="none" xmlns="http://www.w3.org/2000/svg">
<rect x="0.452622" y="0.452622" width="47.0948" height="33.0948" rx="6.78933" fill="#DDD9D6" stroke="#666666" stroke-width="0.905244"/>
<path fill-rule="evenodd" clip-rule="evenodd" d="M15.8959 22.039C15.9279 26.2613 20.2 31.295 23.1425 32.9219C23.1992 32.9495 23.2492 32.9878 23.289 33.0345C23.3288 33.0811 23.3576 33.1351 23.3735 33.1927C23.3895 33.2504 23.3922 33.3106 23.3815 33.3693C23.3708 33.428 23.347 33.484 23.3115 33.5336C23.2684 33.6005 23.2075 33.6559 23.1347 33.6946C23.0619 33.7333 22.9796 33.7539 22.8957 33.7545C22.8102 33.7547 22.7263 33.7327 22.6536 33.6908C19.5146 31.9704 15.2196 26.941 14.9455 22.4383H0.479754C0.360005 22.4274 0.248888 22.3755 0.168044 22.2927C0.0871992 22.2098 0.042416 22.102 0.042416 21.9901C0.042416 21.8783 0.0871992 21.7704 0.168044 21.6876C0.248888 21.6047 0.360005 21.5528 0.479754 21.542H15.0369C15.9486 18.5711 15.9486 15.4225 15.0369 12.4516H0.479754C0.352515 12.4516 0.230487 12.4046 0.140516 12.321C0.0505444 12.2373 0 12.1239 0 12.0056C0 11.8873 0.0505444 11.7739 0.140516 11.6902C0.230487 11.6066 0.352515 11.5596 0.479754 11.5596H14.9455C15.2196 7.03989 19.5329 2.02745 22.6536 0.307083C22.7657 0.24681 22.8989 0.230403 23.024 0.261471C23.1491 0.292539 23.2558 0.368538 23.3206 0.472748C23.3855 0.576958 23.4031 0.700843 23.3697 0.81715C23.3363 0.933457 23.2545 1.03266 23.1425 1.09293C20.2 2.69861 15.9279 7.73653 15.8959 11.9631C16.9424 15.2513 16.9424 18.7508 15.8959 22.039ZM30.7462 7.46484C29.1059 4.41915 26.529 2.02762 24.8338 1.0931C24.7217 1.03283 24.64 0.933626 24.6066 0.81732C24.5732 0.701013 24.5908 0.577128 24.6556 0.472918C24.7205 0.368708 24.8272 0.292709 24.9523 0.261641C25.0774 0.230573 25.2106 0.24698 25.3227 0.307252C27.5433 1.51788 30.1248 4.29596 31.6052 7.04006C31.6409 7.09261 31.6637 7.15179 31.672 7.21342C31.6804 7.27506 31.6741 7.33765 31.6537 7.39678C31.6332 7.45591 31.599 7.51015 31.5535 7.55568C31.5081 7.6012 31.4524 7.63689 31.3905 7.66024C31.3245 7.69336 31.2507 7.71087 31.1757 7.71122C31.0866 7.7113 30.9992 7.68829 30.9233 7.64478C30.8475 7.60126 30.7861 7.53895 30.7462 7.46484ZM47.5194 21.5421H32.9349C32.0231 18.5712 32.0231 15.4225 32.9349 12.4517H47.5194C47.6466 12.4517 47.7687 12.4047 47.8586 12.3211C47.9486 12.2374 47.9991 12.124 47.9991 12.0057C47.9991 11.8874 47.9486 11.7739 47.8586 11.6903C47.7687 11.6067 47.6466 11.5597 47.5194 11.5597H32.5648C32.4608 11.5608 32.36 11.5933 32.2775 11.6523C32.1951 11.7113 32.1356 11.7935 32.1078 11.8867C31.0456 15.1988 31.0456 18.727 32.1078 22.0391C32.0759 26.2614 27.8038 31.2951 24.8613 32.922C24.803 32.948 24.7513 32.9852 24.7096 33.0312C24.6679 33.0771 24.6372 33.1308 24.6195 33.1886C24.6018 33.2464 24.5975 33.3071 24.6069 33.3666C24.6163 33.4261 24.6391 33.483 24.6739 33.5337C24.717 33.6006 24.7779 33.656 24.8507 33.6947C24.9236 33.7334 25.0059 33.754 25.0897 33.7546C25.1753 33.7548 25.2592 33.7327 25.3319 33.6908C28.4526 31.9917 32.7658 26.941 33.0399 22.4383H47.5194C47.6391 22.4275 47.7503 22.3756 47.8311 22.2928C47.9119 22.2099 47.9567 22.1021 47.9567 21.9902C47.9567 21.8783 47.9119 21.7705 47.8311 21.6876C47.7503 21.6048 47.6391 21.5529 47.5194 21.5421ZM23.5113 2.74008C23.6525 2.65233 23.8186 2.60549 23.9885 2.60549C24.2163 2.60549 24.4348 2.68963 24.5959 2.83939C24.757 2.98916 24.8475 3.19228 24.8475 3.40408C24.8475 3.56203 24.7971 3.71643 24.7027 3.84776C24.6083 3.97908 24.4742 4.08144 24.3172 4.14189C24.1603 4.20233 23.9875 4.21814 23.8209 4.18733C23.6543 4.15652 23.5012 4.08046 23.3811 3.96877C23.261 3.85709 23.1792 3.71479 23.146 3.55988C23.1129 3.40497 23.1299 3.2444 23.1949 3.09848C23.2599 2.95255 23.37 2.82783 23.5113 2.74008Z" fill="#666666"/>
<path d="M60.236 16.8547C60.1419 16.7272 60.0738 16.5825 60.0356 16.4288C59.9974 16.275 59.9899 16.1153 60.0134 15.9586C60.061 15.6423 60.2323 15.3578 60.4896 15.1677C60.7469 14.9776 61.0692 14.8976 61.3856 14.9451C61.702 14.9927 61.9865 15.164 62.1766 15.4213C62.6223 16.0195 62.9707 16.6844 63.2088 17.3914C63.4563 18.1249 63.5819 18.8941 63.5804 19.6682C63.5812 20.4404 63.4557 21.2075 63.2088 21.9391C62.9707 22.6461 62.6223 23.311 62.1766 23.9092C61.9865 24.1665 61.702 24.3378 61.3856 24.3854C61.0692 24.4329 60.7469 24.3529 60.4896 24.1628C60.2323 23.9727 60.061 23.6882 60.0134 23.3719C59.9658 23.0555 60.0459 22.7332 60.236 22.4759C60.5305 22.0839 60.7614 21.648 60.9202 21.1841C61.089 20.6964 61.1767 20.1843 61.1797 19.6682C61.1817 19.1551 61.1001 18.645 60.9379 18.1582C60.7748 17.6891 60.5378 17.249 60.236 16.8547ZM64.3649 14.6074C65.3037 16.128 65.7982 17.8811 65.7923 19.6682C65.8003 21.4521 65.31 23.2029 64.3767 24.7232C64.2934 24.8579 64.2375 25.0078 64.2121 25.1642C64.1868 25.3206 64.1925 25.4804 64.2289 25.6346C64.2653 25.7888 64.3318 25.9343 64.4244 26.0628C64.5171 26.1913 64.6341 26.3003 64.7689 26.3836C64.9037 26.4668 65.0536 26.5227 65.2099 26.5481C65.3663 26.5734 65.5262 26.5677 65.6804 26.5313C65.8345 26.4949 65.98 26.4285 66.1085 26.3358C66.2371 26.2432 66.3461 26.1261 66.4293 25.9913C67.5989 24.0906 68.2119 21.8999 68.1989 19.6682C68.2127 17.4345 67.5996 15.2418 66.4293 13.3392C66.3461 13.2044 66.2371 13.0874 66.1085 12.9947C65.98 12.902 65.8345 12.8356 65.6804 12.7992C65.5262 12.7628 65.3663 12.7571 65.2099 12.7824C65.0536 12.8078 64.9037 12.8637 64.7689 12.9469C64.6341 13.0302 64.5171 13.1392 64.4244 13.2677C64.3318 13.3962 64.2653 13.5417 64.2289 13.6959C64.1925 13.8501 64.1868 14.0099 64.2121 14.1663C64.2375 14.3227 64.2934 14.4726 64.3767 14.6074H64.3649ZM68.7592 12.3365C70.0625 14.5685 70.7486 17.1071 70.747 19.6918C70.7478 22.2745 70.0618 24.811 68.7592 27.0412C68.679 27.178 68.6266 27.3291 68.6048 27.4861C68.5831 27.6431 68.5925 27.8028 68.6324 27.9562C68.6724 28.1096 68.7422 28.2535 68.8379 28.3799C68.9335 28.5063 69.0531 28.6126 69.1898 28.6928C69.3265 28.773 69.4777 28.8254 69.6347 28.8472C69.7916 28.8689 69.9514 28.8595 70.1047 28.8196C70.2581 28.7796 70.4021 28.7098 70.5285 28.6141C70.6549 28.5185 70.7612 28.3989 70.8413 28.2622C72.3641 25.6652 73.1645 22.7082 73.1594 19.6977C73.1695 16.6762 72.3711 13.7069 70.8472 11.0978C70.683 10.8209 70.4155 10.6206 70.1035 10.5409C69.7916 10.4613 69.4608 10.5088 69.1839 10.6731C68.907 10.8374 68.7067 11.1049 68.6271 11.4168C68.5474 11.7288 68.5949 12.0596 68.7592 12.3365ZM73.1358 10.0361C74.8122 12.9776 75.6906 16.3061 75.684 19.6918C75.6899 23.0755 74.8115 26.402 73.1358 29.3416C73.0584 29.4791 73.0088 29.6305 72.9898 29.7872C72.9709 29.9438 72.983 30.1027 73.0254 30.2547C73.0679 30.4067 73.1398 30.5488 73.2372 30.673C73.3346 30.7972 73.4555 30.901 73.593 30.9784C73.7305 31.0559 73.8819 31.1055 74.0385 31.1245C74.1952 31.1434 74.3541 31.1313 74.506 31.0889C74.658 31.0464 74.8002 30.9745 74.9244 30.8771C75.0485 30.7797 75.1523 30.6588 75.2298 30.5213C77.1123 27.2163 78.1003 23.4776 78.0964 19.6741C78.1052 15.8607 77.117 12.1112 75.2298 8.7974C75.0733 8.51972 74.813 8.31557 74.506 8.22984C74.1991 8.14411 73.8706 8.18383 73.593 8.34027C73.3153 8.49671 73.1111 8.75704 73.0254 9.064C72.9397 9.37097 72.9794 9.69941 73.1358 9.97708" fill="white"/>
</svg>
