<svg width="16" height="16" viewBox="0 0 16 16" fill="none" xmlns="http://www.w3.org/2000/svg">
<path d="M5.33333 1.74967L10.6667 1.74967C11.7539 1.74967 12.462 2.05822 12.903 2.5332C13.3492 3.01376 13.5833 3.73021 13.5833 4.66634V11.333C13.5833 12.2691 13.3492 12.9856 12.903 13.4662C12.462 13.9411 11.7539 14.2497 10.6667 14.2497H5.33333C4.24608 14.2497 3.53804 13.9411 3.097 13.4662C2.65076 12.9856 2.41667 12.2691 2.41667 11.333L2.41667 4.66634C2.41667 3.73021 2.65076 3.01376 3.097 2.5332C3.53804 2.05822 4.24608 1.74967 5.33333 1.74967ZM8 7.74967L5.33333 7.74967C4.82988 7.74967 4.41667 8.16289 4.41667 8.66634C4.41667 9.16979 4.82988 9.58301 5.33333 9.58301H8C8.50345 9.58301 8.91667 9.16979 8.91667 8.66634C8.91667 8.16289 8.50345 7.74967 8 7.74967ZM5.33333 12.2497H10.6667C11.1701 12.2497 11.5833 11.8365 11.5833 11.333C11.5833 10.8296 11.1701 10.4163 10.6667 10.4163H5.33333C4.82988 10.4163 4.41667 10.8296 4.41667 11.333C4.41667 11.8365 4.82988 12.2497 5.33333 12.2497ZM11 6.58301H12.3333C12.8368 6.58301 13.25 6.16979 13.25 5.66634C13.25 5.16289 12.8368 4.74967 12.3333 4.74967H11C10.7701 4.74967 10.5833 4.56289 10.5833 4.33301V2.99967C10.5833 2.49622 10.1701 2.08301 9.66667 2.08301C9.16322 2.08301 8.75 2.49622 8.75 2.99967V4.33301C8.75 5.57646 9.75655 6.58301 11 6.58301Z" fill="#570021" stroke="#570021" stroke-width="0.833333"/>
</svg>
