<svg width="17" height="16" viewBox="0 0 17 16" fill="none" xmlns="http://www.w3.org/2000/svg">
<g clip-path="url(#clip0_127_50500)">
<path d="M15.331 0.603745H2.16977C1.71896 0.603745 1.35352 0.969192 1.35352 1.41999V14.5812C1.35352 15.032 1.71896 15.3975 2.16977 15.3975H15.331C15.7818 15.3975 16.1473 15.032 16.1473 14.5812V1.41999C16.1473 0.969192 15.7818 0.603745 15.331 0.603745Z" fill="#3D5A98"/>
<path d="M11.5596 15.3962V9.66749H13.4821L13.7696 7.43499H11.5596V6.00999C11.5596 5.36374 11.7396 4.92249 12.6659 4.92249H13.8484V2.92249C13.2758 2.86292 12.7003 2.83454 12.1246 2.83749C10.4221 2.83749 9.24965 3.87499 9.24965 5.78874V7.43499H7.32715V9.66749H9.24965V15.3962H11.5596Z" fill="white"/>
</g>
<defs>
<clipPath id="clip0_127_50500">
<rect width="16" height="16" fill="white" transform="translate(0.75)"/>
</clipPath>
</defs>
</svg>
