<svg width="17" height="16" viewBox="0 0 17 16" fill="none" xmlns="http://www.w3.org/2000/svg">
<path d="M15.2867 6.69434H14.7497V6.66668H8.74967V9.33334H12.5173C11.9677 10.8857 10.4907 12 8.74967 12C6.54067 12 4.74967 10.209 4.74967 8.00001C4.74967 5.79101 6.54067 4.00001 8.74967 4.00001C9.76934 4.00001 10.697 4.38468 11.4033 5.01301L13.289 3.12734C12.0983 2.01768 10.5057 1.33334 8.74967 1.33334C5.06801 1.33334 2.08301 4.31834 2.08301 8.00001C2.08301 11.6817 5.06801 14.6667 8.74967 14.6667C12.4313 14.6667 15.4163 11.6817 15.4163 8.00001C15.4163 7.55301 15.3703 7.11668 15.2867 6.69434Z" fill="#FFC107"/>
<path d="M2.85156 4.89701L5.0419 6.50334C5.63456 5.03601 7.0699 4.00001 8.74956 4.00001C9.76923 4.00001 10.6969 4.38468 11.4032 5.01301L13.2889 3.12734C12.0982 2.01768 10.5056 1.33334 8.74956 1.33334C6.1889 1.33334 3.96823 2.77901 2.85156 4.89701Z" fill="#FF3D00"/>
<path d="M8.75043 14.6667C10.4724 14.6667 12.0371 14.0077 13.2201 12.936L11.1568 11.19C10.4649 11.7161 9.61958 12.0007 8.75043 12C7.01643 12 5.5441 10.8943 4.98943 9.35132L2.81543 11.0263C3.91876 13.1853 6.15943 14.6667 8.75043 14.6667Z" fill="#4CAF50"/>
<path d="M15.287 6.69432H14.75V6.66666H8.75V9.33332H12.5177C12.2547 10.0721 11.7811 10.7177 11.1553 11.1903L11.1563 11.1897L13.2197 12.9357C13.0737 13.0683 15.4167 11.3333 15.4167 7.99999C15.4167 7.55299 15.3707 7.11666 15.287 6.69432Z" fill="#1976D2"/>
</svg>
