<svg width="16" height="16" viewBox="0 0 16 16" fill="none" xmlns="http://www.w3.org/2000/svg">
<path d="M8.66975 10.4802C8.66975 10.8503 8.36978 11.1502 7.99975 11.1502C7.62972 11.1502 7.32975 10.8503 7.32975 10.4802C7.32975 10.1102 7.62972 9.81022 7.99975 9.81022C8.36978 9.81022 8.66975 10.1102 8.66975 10.4802Z" fill="#10B981" stroke="#10B981" stroke-width="0.833333"/>
<path d="M11.7697 6.35301V6.72083L12.1347 6.76646C13.0072 6.87552 13.4918 7.13817 13.7841 7.55904C14.0945 8.00586 14.2497 8.71402 14.2497 9.85967V11.0997C14.2497 12.4517 14.0367 13.19 13.6134 13.6134C13.19 14.0367 12.4517 14.2497 11.0997 14.2497H4.89967C3.54767 14.2497 2.80933 14.0367 2.38597 13.6134C1.9626 13.19 1.74967 12.4517 1.74967 11.0997L1.74967 9.85967C1.74967 8.71402 1.90486 8.00586 2.21522 7.55904C2.50756 7.13817 2.9922 6.87552 3.86469 6.76646L4.22967 6.72083V6.35301V5.51967C4.22967 4.63724 4.33995 3.70203 4.83973 2.99093C5.31824 2.31011 6.2176 1.74967 7.99967 1.74967C9.78175 1.74967 10.6811 2.31011 11.1596 2.99093C11.6594 3.70203 11.7697 4.63724 11.7697 5.51967V6.35301ZM4.32967 6.29301V6.70967H4.48301V6.71634H4.89967L11.0997 6.71634H11.1H11.1003H11.1006H11.1009H11.1012H11.1015H11.1019H11.1022H11.1025H11.1028H11.1031H11.1034H11.1037H11.104H11.1043H11.1047H11.105H11.1053H11.1056H11.1059H11.1062H11.1065H11.1068H11.1071H11.1074H11.1077H11.1081H11.1084H11.1087H11.109H11.1093H11.1096H11.1099H11.1102H11.1105H11.1108H11.1111H11.1114H11.1118H11.1121H11.1124H11.1127H11.113H11.1133H11.1136H11.1139H11.1142H11.1145H11.1148H11.1151H11.1154H11.1157H11.116H11.1163H11.1166H11.117H11.1173H11.1176H11.1179H11.1182H11.1185H11.1188H11.1191H11.1194H11.1197H11.12H11.1203H11.1206H11.1209H11.1212H11.1215H11.1218H11.1221H11.1224H11.1227H11.123H11.1233H11.1236H11.1239H11.1242H11.1245H11.1248H11.1251H11.1254H11.1257H11.126H11.1263H11.1267H11.127H11.1273H11.1276H11.1279H11.1282H11.1285H11.1288H11.1291H11.1294H11.1297H11.13H11.1303H11.1306H11.1309H11.1312H11.1315H11.1318H11.1321H11.1324H11.1327H11.133H11.1333H11.1336H11.1339H11.1342H11.1345H11.1348H11.1351H11.1354H11.1356H11.1359H11.1362H11.1365H11.1368H11.1371H11.1374H11.1377H11.138H11.1383H11.1386H11.1389H11.1392H11.1395H11.1398H11.1401H11.1404H11.1407H11.141H11.1413H11.1416H11.1419H11.1422H11.1425H11.1428H11.1431H11.1434H11.1437H11.144H11.1443H11.1446H11.1449H11.1452H11.1455H11.1458H11.1461H11.1464H11.1466H11.1469H11.1472H11.1475H11.1478H11.1481H11.1484H11.1487H11.149H11.1493H11.1496H11.1499H11.1502H11.1505H11.1508H11.1511H11.1514H11.1517H11.152H11.1523H11.1526H11.1529H11.1531H11.1534H11.1537H11.154H11.1543H11.1546H11.1549H11.1552H11.1555H11.1558H11.1561H11.1564H11.1567H11.157H11.1573H11.1576H11.1579H11.1582H11.1584H11.1587H11.159H11.1593H11.1596H11.1599H11.1602H11.1605H11.1608H11.1611H11.1614H11.1617H11.162H11.1623H11.1626H11.1629H11.1631H11.1634H11.1637H11.164H11.1643H11.1646H11.1649H11.1652H11.1655H11.1658H11.1661H11.1664H11.1667H11.167H11.1673H11.1675H11.1678H11.1681H11.1684H11.1687H11.169H11.1693H11.1696H11.1699H11.1702H11.1705H11.1708H11.1711H11.1714H11.1717H11.1719H11.1722H11.1725H11.1728H11.1731H11.1734H11.1737H11.174H11.1743H11.1746H11.1749H11.1752H11.1755H11.1758H11.176H11.1763H11.1766H11.1769H11.1772H11.1775H11.1778H11.1781H11.1784H11.1787H11.179H11.1793H11.1796H11.1799H11.1801H11.1804H11.1807H11.181H11.1813H11.1816H11.1819H11.1822H11.1825H11.1828H11.1831H11.1834H11.1837H11.184H11.1843H11.1845H11.1848H11.1851H11.1854H11.1857H11.186H11.1863H11.1866H11.1869H11.1872H11.1875H11.1878H11.1881H11.1884H11.1887H11.1889H11.1892H11.1895H11.1898H11.1901H11.1904H11.1907H11.191H11.1913H11.1916H11.1919H11.1922H11.1925H11.1928H11.1931H11.1934H11.1936H11.1939H11.1942H11.1945H11.1948H11.1951H11.1954H11.1957H11.196H11.1963H11.1966H11.1969H11.1972H11.1975H11.1978H11.1981H11.1984H11.1986H11.1989H11.1992H11.1995H11.1998H11.2001H11.2004H11.2007H11.201H11.2013H11.2016H11.2019H11.2022H11.2025H11.2028H11.2031H11.2034H11.2037H11.204H11.2043H11.2046H11.2048H11.2051H11.2054H11.2057H11.206H11.2063H11.2066H11.2069H11.2072H11.2075H11.2078H11.2081H11.2084H11.2087H11.209H11.2093H11.2096H11.2099H11.2102H11.2105H11.2108H11.2111H11.2114H11.2117H11.212H11.2123H11.2126H11.2129H11.2132H11.2135H11.2138H11.214H11.2143H11.2146H11.2149H11.2152H11.2155H11.2158H11.2161H11.2164H11.2167H11.217H11.2173H11.2176H11.2179H11.2182H11.2185H11.2188H11.2191H11.2194H11.2197H11.22H11.2203H11.2206H11.2209H11.2212H11.2215H11.2218H11.2221H11.2224H11.2227H11.223H11.2233H11.2236H11.2239H11.2242H11.2245H11.2248H11.2251H11.2254H11.2257H11.226H11.2263H11.2266H11.2269H11.2272H11.2275H11.2278H11.2281H11.2284H11.2287H11.229H11.2294H11.2297H11.23H11.2303H11.2306H11.2309H11.2312H11.2315H11.2318H11.2321H11.2324H11.2327H11.233H11.2333H11.2336H11.2339H11.2342H11.2345H11.2348H11.2351H11.2354H11.2357H11.236H11.2363H11.2366H11.2369H11.2373H11.2376H11.2379H11.2382H11.2385H11.2388H11.2391H11.2394H11.2397H11.24H11.2403H11.2406H11.2409H11.2412H11.2415H11.2419H11.2422H11.2425H11.2428H11.2431H11.2434H11.2437H11.244H11.2443H11.2446H11.2449H11.2452H11.2455H11.2459H11.2462H11.2465H11.2468H11.2471H11.2474H11.2477H11.248H11.2483H11.2486H11.249H11.2493H11.2496H11.2499H11.2502H11.2505H11.2508H11.2511H11.2514H11.2518H11.2521H11.2524H11.2527H11.253H11.6697V6.29967V5.51967C11.6697 4.52409 11.5337 3.58124 10.9585 2.89326C10.3691 2.18827 9.40697 1.84967 7.99967 1.84967C6.59238 1.84967 5.63022 2.18827 5.04084 2.89326C4.46567 3.58124 4.32967 4.52409 4.32967 5.51967V6.29301ZM5.56967 10.4797C5.56967 11.8156 6.65532 12.9097 7.99967 12.9097C9.34313 12.9097 10.4297 11.8231 10.4297 10.4797C10.4297 9.14289 9.33646 8.04967 7.99967 8.04967C6.66379 8.04967 5.56967 9.13532 5.56967 10.4797Z" fill="#10B981" stroke="#10B981" stroke-width="0.833333"/>
</svg>
