<svg width="58" height="34" viewBox="0 0 58 34" fill="none" xmlns="http://www.w3.org/2000/svg">
<path d="M37.6324 3.63477H20.376V30.362H37.6324V3.63477Z" fill="#FF5F00"/>
<path d="M22.1529 17.0011C22.1507 14.4275 22.766 11.8872 23.952 9.57237C25.138 7.25753 26.8638 5.22886 28.9987 3.63988C26.3545 1.66931 23.1791 0.443937 19.8352 0.103797C16.4914 -0.236343 13.1141 0.322477 10.0894 1.71639C7.06464 3.1103 4.51446 5.28306 2.7303 7.98636C0.946146 10.6897 0 13.8144 0 17.0035C0 20.1926 0.946146 23.3173 2.7303 26.0206C4.51446 28.7239 7.06464 30.8967 10.0894 32.2906C13.1141 33.6845 16.4914 34.2433 19.8352 33.9032C23.1791 33.5631 26.3545 32.3377 28.9987 30.3671C26.8631 28.7776 25.137 26.7482 23.9509 24.4325C22.7648 22.1168 22.15 19.5755 22.1529 17.0011Z" fill="#EB001B"/>
<path d="M56.2869 27.535V26.9873H56.5358V26.874H55.9434V26.9873H56.1774V27.535H56.2869ZM57.437 27.535V26.874H57.2578L57.0486 27.3462L56.8395 26.874H56.6603V27.535H56.7898V27.0345L56.9839 27.4642H57.1183L57.3125 27.0345V27.535H57.437Z" fill="#F79E1B"/>
<path d="M58.0003 17.001C58.0003 20.1903 57.0539 23.3153 55.2694 26.0187C53.485 28.722 50.9344 30.8948 47.9093 32.2885C44.8841 33.6822 41.5065 34.2406 38.1625 33.9C34.8185 33.5594 31.643 32.3334 28.999 30.3622C31.1331 28.7718 32.8583 26.7426 34.0447 24.4277C35.231 22.1127 35.8475 19.5725 35.8475 16.9986C35.8475 14.4248 35.231 11.8846 34.0447 9.56959C32.8583 7.25463 31.1331 5.22541 28.999 3.63501C31.643 1.66383 34.8185 0.437855 38.1625 0.0972263C41.5065 -0.243402 44.8841 0.315058 47.9093 1.70877C50.9344 3.10248 53.485 5.27521 55.2694 7.9786C57.0539 10.682 58.0003 13.8069 58.0003 16.9963V17.001Z" fill="#F79E1B"/>
</svg>
