<svg width="16" height="16" viewBox="0 0 16 16" fill="none" xmlns="http://www.w3.org/2000/svg">
<path d="M12.5357 9.87468L12.5368 9.87649C12.7304 10.1941 12.764 10.5667 12.6361 10.9061C12.5058 11.2518 12.239 11.5111 11.8959 11.6238L11.8936 11.6246C10.6445 12.0431 9.32932 12.2497 8.01264 12.2497C6.69598 12.2497 5.3815 12.0431 4.13351 11.6185L4.13267 11.6183C3.7418 11.4862 3.46924 11.2224 3.35824 10.9125L3.35825 10.9125L3.35705 10.9092C3.23868 10.5873 3.274 10.2251 3.48317 9.8742C3.48336 9.87389 3.48355 9.87358 3.48374 9.87326L4.15584 8.76197L4.15589 8.762L4.15922 8.75629C4.25478 8.59247 4.33309 8.37723 4.38721 8.17816C4.44126 7.97939 4.48264 7.75462 4.48264 7.56634V5.87967C4.48264 4.49887 5.28607 3.29915 6.45155 2.7194L6.56682 2.66206L6.62965 2.54969C6.90372 2.05954 7.41902 1.74967 7.99264 1.74967C8.5765 1.74967 9.07753 2.04946 9.34991 2.53136L9.41456 2.64575L9.53314 2.70236C10.7211 3.26949 11.5426 4.48036 11.5426 5.87967V7.56634C11.5426 7.75462 11.584 7.97933 11.6379 8.17853C11.6921 8.3787 11.7699 8.59362 11.8636 8.75868L11.8635 8.75875L11.8691 8.76801L12.5357 9.87468Z" fill="#002157" stroke="#002157" stroke-width="0.833333"/>
<path d="M8.00012 14.2497C7.61257 14.2497 7.23097 14.1031 6.94985 13.8453C7.29947 13.8732 7.65571 13.8897 8.01345 13.8897C8.36439 13.8897 8.71384 13.8732 9.05667 13.8455C8.77522 14.0971 8.40464 14.2497 8.00012 14.2497Z" fill="#002157" stroke="#002157" stroke-width="0.833333"/>
</svg>
